<?xml version="1.0" encoding="utf-8"?>
<!-- Created by sK1 2.0rc5 (https://sk1project.net/) -->
<svg xmlns="http://www.w3.org/2000/svg" height="16.0px" width="16.0px" version="1.1" xmlns:xlink="http://www.w3.org/1999/xlink" id="2ecc3e66-929b-11ea-b410-28f10e13a705">

<g>
	<path style="fill-rule:evenodd;fill:#000000;" d="M 16.0,8.0 C 16.0,3.5825 12.4175,0.0 8.0,0.0 3.5825,0.0 0.0,3.5825 0.0,8.0 0.0,12.4175 3.5825,16.0 8.0,16.0 12.4175,16.0 16.0,12.4175 16.0,8.0 Z" />
	<path style="fill-rule:evenodd;fill:#ffffff;" d="M 3.0006,7.5004 L 3.0006,3.0008 7.5003,3.0008 7.5003,7.5004 3.0006,7.5004 Z" />
	<path style="fill-rule:evenodd;fill:#ffffff;" d="M 8.5006,7.5004 L 8.5006,3.0008 13.0003,3.0008 13.0003,7.5004 8.5006,7.5004 Z" />
	<path style="fill-rule:evenodd;fill:#ffffff;" d="M 8.5006,13.0023 L 8.5006,8.5026 13.0003,8.5026 13.0003,13.0023 8.5006,13.0023 Z" />
	<path style="fill-rule:evenodd;fill:#ffffff;" d="M 3.0006,13.0023 L 3.0006,8.5026 7.5003,8.5026 7.5003,13.0023 3.0006,13.0023 Z" />
</g>
<rect y="0.0" x="46.0" style="fill:none;stroke:black;" height="16.0" width="16.0" />
<g>
	<path style="fill-rule:evenodd;fill:#333333;" d="M 62.0,8.0 C 62.0,3.5825 58.4175,0.0 54.0,0.0 49.5825,0.0 46.0,3.5825 46.0,8.0 46.0,12.4175 49.5825,16.0 54.0,16.0 58.4175,16.0 62.0,12.4175 62.0,8.0 Z" />
	<path style="fill-rule:evenodd;fill:#e67e22;" d="M 49.0006,7.5004 L 49.0006,3.0008 53.5003,3.0008 53.5003,7.5004 49.0006,7.5004 Z" />
	<path style="fill-rule:evenodd;fill:#e74c3c;" d="M 54.5006,7.5004 L 54.5006,3.0008 59.0003,3.0008 59.0003,7.5004 54.5006,7.5004 Z" />
	<path style="fill-rule:evenodd;fill:#c0392b;" d="M 54.5006,13.0023 L 54.5006,8.5026 59.0003,8.5026 59.0003,13.0023 54.5006,13.0023 Z" />
	<path style="fill-rule:evenodd;fill:#d35400;" d="M 49.0006,13.0023 L 49.0006,8.5026 53.5003,8.5026 53.5003,13.0023 49.0006,13.0023 Z" />
</g>
<rect y="-4.0" x="92.0" style="fill:none;stroke:black;" height="24.0" width="24.0" />
<g>
	<path style="fill-rule:evenodd;fill:#333333;" d="M 116.0,8.0 C 116.0,1.3737 110.6263,-4.0 104.0,-4.0 97.3737,-4.0 92.0,1.3737 92.0,8.0 92.0,14.6263 97.3737,20.0 104.0,20.0 110.6263,20.0 116.0,14.6263 116.0,8.0 Z" />
	<path style="fill-rule:evenodd;fill:#e67e22;" d="M 97.0008,7.0 L 97.0008,1.0012 102.9996,1.0012 102.9996,7.0 97.0008,7.0 Z" />
	<path style="fill-rule:evenodd;fill:#e74c3c;" d="M 105.0016,7.0 L 105.0016,1.0012 111.0004,1.0012 111.0004,7.0 105.0016,7.0 Z" />
	<path style="fill-rule:evenodd;fill:#c0392b;" d="M 105.0016,14.9994 L 105.0016,9.0006 111.0004,9.0006 111.0004,14.9994 105.0016,14.9994 Z" />
	<path style="fill-rule:evenodd;fill:#d35400;" d="M 97.0008,15.0033 L 97.0008,9.0046 102.9996,9.0046 102.9996,15.0033 97.0008,15.0033 Z" />
</g>
<rect y="-8.0" x="146.0" style="fill:none;stroke:black;" height="32.0" width="32.0" />
<g>
	<path style="fill-rule:evenodd;fill:#333333;" d="M 178.0,8.0 C 178.0,-0.8351 170.8351,-8.0 162.0,-8.0 153.1649,-8.0 146.0,-0.8351 146.0,8.0 146.0,16.8351 153.1649,24.0 162.0,24.0 170.8351,24.0 178.0,16.8351 178.0,8.0 Z" />
	<path style="fill-rule:evenodd;fill:#e67e22;" d="M 152.9998,7.0033 L 152.9998,-0.9997 161.0028,-0.9997 161.0028,7.0033 152.9998,7.0033 Z" />
	<path style="fill-rule:evenodd;fill:#e74c3c;" d="M 163.0029,6.9993 L 163.0029,-0.9997 171.0018,-0.9997 171.0018,6.9993 163.0029,6.9993 Z" />
	<path style="fill-rule:evenodd;fill:#c0392b;" d="M 163.0029,17.0006 L 163.0029,9.0017 171.0018,9.0017 171.0018,17.0006 163.0029,17.0006 Z" />
	<path style="fill-rule:evenodd;fill:#d35400;" d="M 152.9998,17.0057 L 152.9998,9.0027 161.0028,9.0027 161.0028,17.0057 152.9998,17.0057 Z" />
</g>
<rect y="-16.0" x="208.0" style="fill:none;stroke:black;" height="48.0" width="48.0" />
<g>
	<path style="fill-rule:evenodd;fill:#333333;" d="M 256.0,8.0 C 256.0,-5.2526 245.2526,-16.0 232.0,-16.0 218.7474,-16.0 208.0,-5.2526 208.0,8.0 208.0,21.2526 218.7474,32.0 232.0,32.0 245.2526,32.0 256.0,21.2526 256.0,8.0 Z" />
	<path style="fill-rule:evenodd;fill:#e67e22;" d="M 218.0,7.0001 L 218.0,-5.9995 230.9996,-5.9995 230.9996,7.0001 218.0,7.0001 Z" />
	<path style="fill-rule:evenodd;fill:#e74c3c;" d="M 233.0016,7.0018 L 233.0016,-5.9995 246.0029,-5.9995 246.0029,7.0018 233.0016,7.0018 Z" />
	<path style="fill-rule:evenodd;fill:#c0392b;" d="M 233.0016,22.0008 L 233.0016,8.9994 246.0029,8.9994 246.0029,22.0008 233.0016,22.0008 Z" />
	<path style="fill-rule:evenodd;fill:#d35400;" d="M 218.0039,22.0009 L 218.0039,9.0052 230.9996,9.0052 230.9996,22.0009 218.0039,22.0009 Z" />
</g>
<rect y="-24.0" x="286.0" style="fill:none;stroke:black;" height="64.0" width="64.0" />
<g>
	<path style="fill-rule:evenodd;fill:#333333;" d="M 350.0,8.0 C 350.0,-9.6701 335.6701,-24.0 318.0,-24.0 300.3299,-24.0 286.0,-9.6701 286.0,8.0 286.0,25.6701 300.3299,40.0 318.0,40.0 335.6701,40.0 350.0,25.6701 350.0,8.0 Z" />
	<path style="fill-rule:evenodd;fill:#e67e22;" d="M 299.3334,6.6668 L 299.3334,-10.666 316.6662,-10.666 316.6662,6.6668 299.3334,6.6668 Z" />
	<path style="fill-rule:evenodd;fill:#e74c3c;" d="M 319.3354,6.6691 L 319.3354,-10.666 336.6706,-10.666 336.6706,6.6691 319.3354,6.6691 Z" />
	<path style="fill-rule:evenodd;fill:#c0392b;" d="M 319.3354,26.6677 L 319.3354,9.3326 336.6706,9.3326 336.6706,26.6677 319.3354,26.6677 Z" />
	<path style="fill-rule:evenodd;fill:#d35400;" d="M 299.3386,26.6678 L 299.3386,9.3402 316.6662,9.3402 316.6662,26.6678 299.3386,26.6678 Z" />
</g>
<rect y="-52.0" x="380.0" style="fill:none;stroke:black;" height="120.0" width="120.0" />
<g>
	<path style="fill-rule:evenodd;fill:#333333;" d="M 500.0,8.0 C 500.0,-25.1315 473.1315,-52.0 440.0,-52.0 406.8685,-52.0 380.0,-25.1315 380.0,8.0 380.0,41.1315 406.8685,68.0 440.0,68.0 473.1315,68.0 500.0,41.1315 500.0,8.0 Z" />
	<path style="fill-rule:evenodd;fill:#e67e22;" d="M 405.0001,5.5002 L 405.0001,-26.9988 437.4991,-26.9988 437.4991,5.5002 405.0001,5.5002 Z" />
	<path style="fill-rule:evenodd;fill:#e74c3c;" d="M 442.5039,5.5046 L 442.5039,-26.9988 475.0073,-26.9988 475.0073,5.5046 442.5039,5.5046 Z" />
	<path style="fill-rule:evenodd;fill:#c0392b;" d="M 442.5039,43.002 L 442.5039,10.4986 475.0073,10.4986 475.0073,43.002 442.5039,43.002 Z" />
	<path style="fill-rule:evenodd;fill:#d35400;" d="M 405.0098,43.0021 L 405.0098,10.5129 437.4991,10.5129 437.4991,43.0021 405.0098,43.0021 Z" />
</g>
<rect y="-88.0" x="530.0" style="fill:none;stroke:black;" height="192.0" width="192.0" />
<g>
	<path style="fill-rule:evenodd;fill:#333333;" d="M 722.0,8.0 C 722.0,-45.0104 679.0104,-88.0 626.0,-88.0 572.9896,-88.0 530.0,-45.0104 530.0,8.0 530.0,61.0104 572.9896,104.0 626.0,104.0 679.0104,104.0 722.0,61.0104 722.0,8.0 Z" />
	<path style="fill-rule:evenodd;fill:#e67e22;" d="M 570.0001,4.0003 L 570.0001,-47.9981 621.9985,-47.9981 621.9985,4.0003 570.0001,4.0003 Z" />
	<path style="fill-rule:evenodd;fill:#e74c3c;" d="M 630.0063,4.0073 L 630.0063,-47.9981 682.0117,-47.9981 682.0117,4.0073 630.0063,4.0073 Z" />
	<path style="fill-rule:evenodd;fill:#c0392b;" d="M 630.0063,64.0031 L 630.0063,11.9977 682.0117,11.9977 682.0117,64.0031 630.0063,64.0031 Z" />
	<path style="fill-rule:evenodd;fill:#d35400;" d="M 570.0157,64.0034 L 570.0157,12.0206 621.9985,12.0206 621.9985,64.0034 570.0157,64.0034 Z" />
</g>
</svg>